<svg width="30" height="30" viewBox="0 0 30 30" fill="none" xmlns="http://www.w3.org/2000/svg">
<path d="M29.3079 15.6116H0.692533C0.352148 15.6116 0.0771484 15.3366 0.0771484 14.9962C0.0771484 14.6558 0.352148 14.3808 0.692533 14.3808H27.8214L24.0868 10.6462C23.8464 10.4058 23.8464 10.0154 24.0868 9.77502C24.3271 9.53463 24.7175 9.53463 24.9579 9.77502L29.7445 14.5616C29.9214 14.7385 29.9733 15.0019 29.8771 15.2327C29.781 15.4616 29.556 15.6116 29.3079 15.6116Z" fill="#019CDC"/>
<path d="M24.5158 20.4039C24.3581 20.4039 24.2004 20.3443 24.0812 20.2231C23.8408 19.9828 23.8408 19.5924 24.0812 19.352L28.8735 14.5597C29.1139 14.3193 29.5042 14.3193 29.7446 14.5597C29.985 14.8001 29.985 15.1905 29.7446 15.4308L24.9523 20.2231C24.8312 20.3443 24.6735 20.4039 24.5158 20.4039Z" fill="#019CDC"/>
</svg>
