<svg width="28" height="28" viewBox="0 0 28 28" fill="none" xmlns="http://www.w3.org/2000/svg">
<path d="M11.4348 14.0002L0.532145 3.09701C-0.177382 2.3878 -0.177382 1.24111 0.532145 0.531906C1.24134 -0.177302 2.388 -0.177302 3.0972 0.531906L14.0002 11.4351L24.9028 0.531906C25.6123 -0.177302 26.7587 -0.177302 27.4679 0.531906C28.1774 1.24111 28.1774 2.3878 27.4679 3.09701L16.5652 14.0002L27.4679 24.9034C28.1774 25.6126 28.1774 26.7593 27.4679 27.4685C27.1144 27.8223 26.6497 28 26.1853 28C25.7209 28 25.2566 27.8223 24.9028 27.4685L14.0002 16.5653L3.0972 27.4685C2.74343 27.8223 2.27905 28 1.81467 28C1.35029 28 0.88591 27.8223 0.532145 27.4685C-0.177382 26.7593 -0.177382 25.6126 0.532145 24.9034L11.4348 14.0002Z" fill="white"/>
</svg>
