<?xml version="1.0" encoding="UTF-8"?>
<svg width="10px" height="152px" viewBox="0 0 10 152" version="1.1" xmlns="http://www.w3.org/2000/svg" xmlns:xlink="http://www.w3.org/1999/xlink">
    <g stroke="none" stroke-width="1" fill="none" fill-rule="evenodd">
        <g transform="translate(-1464.000000, -689.000000)" fill-rule="nonzero" stroke="#FFFFFF" stroke-width="2">
            <g>
                <g transform="translate(1310.000000, 690.000000)">
                    <g transform="translate(155.000000, 0.000000)">
                        <path d="M4,0 C9.33333333,4.60237292 9.33333333,12.0642938 4,16.6666667 C-1.33333333,21.2690396 -1.33333333,28.7309604 4,33.3333333 C9.33333333,37.9357062 9.33333333,45.3976271 4,50 C-1.33333333,54.6023729 -1.33333333,62.0642938 4,66.6666667 C9.33333333,71.2690396 9.33333333,78.7309604 4,83.3333333 C-1.33333333,87.9357062 -1.33333333,95.3976271 4,100 C9.33333333,104.602373 9.33333333,112.064294 4,116.666667 C-1.33333333,121.26904 -1.33333333,128.73096 4,133.333333 C9.33333333,137.935706 9.33333333,145.397627 4,150"></path>
                    </g>
                </g>
            </g>
        </g>
    </g>
</svg>