<svg width="19" height="19" viewBox="0 0 19 19" fill="none" xmlns="http://www.w3.org/2000/svg">
<path d="M17.0498 8.04948L13.5459 11.465L14.3734 16.289C14.4094 16.4999 14.3228 16.7131 14.1495 16.8391C14.0516 16.9105 13.9352 16.9465 13.8188 16.9465C13.7293 16.9465 13.6393 16.9252 13.5572 16.8819L9.22482 14.6043L4.89301 16.8813C4.70401 16.9814 4.47394 16.9651 4.30069 16.8385C4.12744 16.7125 4.04082 16.4994 4.07682 16.2884L4.90426 11.4644L1.39988 8.04948C1.24688 7.89985 1.19119 7.67598 1.25757 7.47291C1.32394 7.26985 1.50001 7.12079 1.71207 7.08985L6.55463 6.38673L8.72026 1.9981C8.90982 1.61391 9.53982 1.61391 9.72938 1.9981L11.895 6.38673L16.7376 7.08985C16.9496 7.12079 17.1257 7.26929 17.1921 7.47291C17.2584 7.67654 17.2028 7.89929 17.0498 8.04948Z" fill="#019CDC"/>
</svg>
